<svg xmlns="http://www.w3.org/2000/svg" version="1.1" viewBox="-5.0 -10.0 110.0 135.0">
 <path d="m84 23.5c4.1406 0 7.5-3.3594 7.5-7.5s-3.3594-7.5-7.5-7.5-7.5 3.3594-7.5 7.5c0 0.30859 0.019531 0.62891 0.058594 0.92188 0.17188 1.4102 0.73828 2.7188 1.6094 3.8008l-12.246 14.867c-0.19922-0.14062-0.39844-0.28125-0.60938-0.41016-0.16016-0.10938-0.32031-0.19922-0.44141-0.26172-2.6719-1.5781-5.7422-2.418-8.8711-2.418-3.7188 0-7.3203 1.1914-10.281 3.3516l-7.1289-8.2188c0.57812-0.64844 1.0898-1.3516 1.5-2.1211 0.92188-1.6797 1.3984-3.5898 1.3984-5.5117 0-0.46094-0.03125-0.94141-0.089843-1.4219-0.69922-5.75-5.6094-10.078-11.398-10.078-6.3398 0-11.5 5.1602-11.5 11.5 0 3.2109 1.3594 6.3008 3.7383 8.4805 2.1289 1.9492 4.8906 3.0195 7.7617 3.0195 0.17188 0 0.32812 0 0.42188-0.011719 2.1016-0.070312 4.1484-0.73828 5.8984-1.8984l7.1289 8.2188c-1.1016 1.1211-2.0508 2.3984-2.8203 3.8086-1.3984 2.5703-2.1289 5.4609-2.1289 8.3789 0 3.5898 1.0781 7.0117 3.1016 9.9297l-10.203 8.3945c-2.5-2.4414-5.8516-3.8203-9.3984-3.8203-0.17969 0-0.35156 0-0.48828 0.011719-7.3008 0.25781-13.012 6.1875-13.012 13.488 0 7.4414 6.0586 13.5 13.5 13.5 7.0898 0 13-5.5391 13.461-12.578 0.019531-0.30078 0.039062-0.60938 0.039062-0.92188 0-2.6406-0.76172-5.1719-2.1992-7.3594l10.219-8.4102c3.2695 3.3594 7.7305 5.2695 12.48 5.2695 2.8711 0 5.6992-0.69922 8.1602-2.0195 0.17188-0.078125 0.32812-0.17969 0.41016-0.23047 0.019532-0.011719 0.039063-0.03125 0.058594-0.039062l6.8086 9.9102c-1.7109 1.6211-2.7695 3.8398-2.9297 6.2617-0.011718 0.19922-0.019531 0.41016-0.019531 0.62109 0 5.2383 4.2617 9.5 9.5 9.5s9.5-4.2617 9.5-9.5c0-5.2383-4.2617-9.5-9.5-9.5-1.4219 0-2.8203 0.32812-4.0703 0.92969l-6.8203-9.9297c4-3.2891 6.3906-8.2305 6.3906-13.512 0-4.8008-1.9297-9.2617-5.2617-12.512l12.273-14.871c1.0703 0.57031 2.2617 0.89062 3.5 0.89062zm-6 52c3.5781 0 6.5 2.9219 6.5 6.5s-2.9219 6.5-6.5 6.5-6.5-2.9219-6.5-6.5c0-0.14844 0.011719-0.30078 0.019531-0.42969 0.14062-2.1914 1.3789-4.1484 3.2383-5.1992 0.058594-0.03125 0.12109-0.058594 0.21094-0.12109 0.92188-0.48828 1.9727-0.75 3.0312-0.75zm-47.75-47c-0.078125 0.011719-0.16016 0-0.25 0-2.1211 0-4.1602-0.78906-5.7383-2.2383-1.7812-1.6289-2.7617-3.8516-2.7617-6.2617 0-4.6914 3.8086-8.5 8.5-8.5 4.2812 0 7.9102 3.1992 8.4297 7.4492 0.050781 0.37109 0.070312 0.71875 0.070312 1.0508 0 1.4219-0.35938 2.8281-1.0391 4.0703-0.48047 0.89063-1.1211 1.6797-1.8906 2.3516-1.4688 1.2695-3.3398 2.0078-5.3203 2.0781zm2.2188 50.199c-0.35938 5.4883-4.9609 9.8008-10.469 9.8008-5.7891 0-10.5-4.7109-10.5-10.5 0-5.6797 4.4414-10.289 10.16-10.488 0.089844-0.011719 0.17969-0.011719 0.26953-0.011719 3.1406-0.039062 6.1719 1.3789 8.1914 3.8594 0.14844 0.17969 0.28906 0.37109 0.42188 0.55078 1.2812 1.7812 1.9609 3.8789 1.9609 6.0898-0.003906 0.23047-0.015625 0.46094-0.035156 0.69922zm38.031-28.699c0 5.2305-2.8281 10.078-7.4609 12.672-0.070312 0.039063-0.14062 0.089844-0.25 0.14062-2.0586 1.1016-4.4102 1.6797-6.7812 1.6797-4.3516 0-8.4297-1.9219-11.199-5.3086-0.21094-0.23828-0.41016-0.48828-0.60156-0.76953-1.7695-2.4609-2.6992-5.3789-2.6992-8.4297 0-2.4219 0.60938-4.8203 1.7695-6.9414 0.82812-1.5195 1.9492-2.8984 3.25-4.0117 2.6211-2.2891 5.9805-3.5508 9.4805-3.5508 2.6016 0 5.1406 0.69141 7.3984 2.0312 0.089844 0.050781 0.17188 0.089843 0.28906 0.17188 4.2539 2.6875 6.8047 7.2852 6.8047 12.316zm13.5-38.5c2.4805 0 4.5 2.0195 4.5 4.5s-2.0195 4.5-4.5 4.5c-0.80078 0-1.5703-0.21094-2.2305-0.60938-0.039062-0.019531-0.078125-0.050781-0.12109-0.070313-0.011719-0.011718-0.019532-0.011718-0.03125-0.019531-1.1406-0.71094-1.9219-1.9219-2.0781-3.25-0.019531-0.17969-0.039062-0.37109-0.039062-0.55859 0-2.4727 2.0195-4.4922 4.5-4.4922z"/>
<text x="0.0" y="117.5" font-size="5.0" font-weight="bold" font-family="Arbeit Regular, Helvetica, Arial-Unicode, Arial, Sans-serif" fill="#000000">Created by Anamika singh</text><text x="0.0" y="122.5" font-size="5.0" font-weight="bold" font-family="Arbeit Regular, Helvetica, Arial-Unicode, Arial, Sans-serif" fill="#000000">from Noun Project</text></svg>