<svg xmlns:dc="http://purl.org/dc/elements/1.1/" xmlns:cc="http://creativecommons.org/ns#" xmlns:rdf="http://www.w3.org/1999/02/22-rdf-syntax-ns#" xmlns:svg="http://www.w3.org/2000/svg" xmlns="http://www.w3.org/2000/svg" xmlns:sodipodi="http://sodipodi.sourceforge.net/DTD/sodipodi-0.dtd" xmlns:inkscape="http://www.inkscape.org/namespaces/inkscape" version="1.1" x="0px" y="0px" viewBox="0 0 100 125"><g transform="translate(0,-952.36218)"><path style="color:#000000;enable-background:accumulate;" d="m 14,965.36219 c -2.21601,0 -4,1.784 -4,4 l 0,7.99999 8.09375,0 10.34375,-11.99999 -14.4375,0 z m 19.6875,0 -10.34375,11.99999 14.75,0 10.34375,-11.99999 -14.75,0 z m 20,0 -10.34375,11.99999 14.75,0 10.34375,-11.99999 -14.75,0 z m 20,0 -10.34375,11.99999 16.65625,0 0,-7.99999 c 0,-2.216 -1.78399,-4 -4,-4 l -2.3125,0 z M 10,981.36218 l 0,44.00002 c 0,2.216 1.78399,4 4,4 l 46.53125,0 c -0.33191,-1.2836 -0.53125,-2.6126 -0.53125,-4 0,-8.8366 7.16343,-16 16,-16 1.38738,0 2.71636,0.1994 4,0.5312 l 0,-28.53122 -70,0 z m 30,14 16,10.00002 -16,10 0,-20.00002 z m 36,16.00002 c -7.73199,0 -14,6.268 -14,14 0,7.732 6.26801,14 14,14 7.73198,0 14,-6.268 14,-14 0,-7.732 -6.26802,-14 -14,-14 z m 0,5 c 1.1046,0 2,0.8954 2,2 l 0,5 5,0 c 1.10457,0 2,0.8954 2,2 0,1.1046 -0.89543,2 -2,2 l -5,0 0,5 c 0,1.1046 -0.8954,2 -2,2 -1.1046,0 -2,-0.8954 -2,-2 l 0,-5 -5,0 c -1.10457,0 -2,-0.8954 -2,-2 0,-1.1046 0.89543,-2 2,-2 l 5,0 0,-5 c 0,-1.1046 0.8954,-2 2,-2 z" fill="#000000" stroke="none" marker="none" visibility="visible" display="inline" overflow="visible"/></g><text x="0" y="115" fill="#000000" font-size="5px" font-weight="bold" font-family="'Helvetica Neue', Helvetica, Arial-Unicode, Arial, Sans-serif">Created by unlimicon</text><text x="0" y="120" fill="#000000" font-size="5px" font-weight="bold" font-family="'Helvetica Neue', Helvetica, Arial-Unicode, Arial, Sans-serif">from the Noun Project</text></svg>