<svg xmlns="http://www.w3.org/2000/svg" xmlns:xlink="http://www.w3.org/1999/xlink" version="1.1" x="0px" y="0px" viewBox="0 0 100 125" style="enable-background:new 0 0 100 100;" xml:space="preserve"><path d="M25.3713684,53.1917725c0.7995605-0.9586792,2.2723389-0.9586792,3.0718994,0.000061l7.8917236,9.4627686  c0.7995605,0.9587402,2.2723389,0.9587402,3.0718994,0.000061L56.191803,42.5285034  c0.7995605-0.9586792,2.2723389-0.9586792,3.0718994,0.000061l7.7616577,9.3067017  c2.3706665-0.8513184,4.9230347-1.3182373,7.5830688-1.3182373c0.8452759,0,1.6785889,0.0509644,2.499939,0.1422119V13.9829712  c0-2.4814453-2.0185547-4.5-4.5-4.5H12.391571c-2.4814453,0-4.5,2.0185547-4.5,4.5v57.0336914c0,2.4814453,2.0185547,4.5,4.5,4.5  h39.8590698c-0.0912476-0.821228-0.1422119-1.65448-0.1422119-2.4996338c0-0.845459,0.0510254-1.678894,0.1422729-2.5003662  H12.891571v-2.3606567L25.3713684,53.1917725z M28.3887634,22.3933716c4.2026978,0,7.6096191,3.4069214,7.6096191,7.6095581  s-3.4069214,7.6095581-7.6096191,7.6095581c-4.2026367,0-7.6095581-3.4069214-7.6095581-7.6095581  S24.1861267,22.3933716,28.3887634,22.3933716z M74.608429,55.5170288c-9.664978,0-17.5,7.835022-17.5,17.5s7.835022,17.5,17.5,17.5  s17.5-7.835022,17.5-17.5S84.273407,55.5170288,74.608429,55.5170288z M83.7402039,75.5166626h-6.6318359v6.6318359  c0,1.3808594-1.1191406,2.5-2.5,2.5s-2.5-1.1191406-2.5-2.5v-6.6318359H65.476532c-1.3808594,0-2.5-1.1191406-2.5-2.5  s1.1191406-2.5,2.5-2.5h6.6318359v-6.6308594c0-1.3808594,1.1191406-2.5,2.5-2.5s2.5,1.1191406,2.5,2.5v6.6308594h6.6318359  c1.3808594,0,2.5,1.1191406,2.5,2.5S85.1210632,75.5166626,83.7402039,75.5166626z"/><text x="0" y="115" fill="#000000" font-size="5px" font-weight="bold" font-family="'Helvetica Neue', Helvetica, Arial-Unicode, Arial, Sans-serif">Created by Llisole</text><text x="0" y="120" fill="#000000" font-size="5px" font-weight="bold" font-family="'Helvetica Neue', Helvetica, Arial-Unicode, Arial, Sans-serif">from the Noun Project</text></svg>