<svg xmlns="http://www.w3.org/2000/svg" xmlns:xlink="http://www.w3.org/1999/xlink" version="1.1" x="0px" y="0px" viewBox="0 0 128 160" style="enable-background:new 0 0 128 128;" xml:space="preserve"><g><path d="M67.9,83.9c-3,0-5.5,2.5-5.5,5.6c0,3,2.6,5.6,5.6,5.6c3.3,0,5.7-2.5,5.6-5.7C73.5,86.2,71,83.9,67.9,83.9z"/><path d="M83,37.9c-10.9-9.6-33.5-5-35.1,11.1c-0.1,0.9,0.3,1.3,1.2,1.4c2.4,0.3,4.9,0.6,7.3,0.9c1.9,0.3,2,0.3,2.6-1.6   c3.9-12.7,22.8-5.9,15.3,4.4c-3,4.1-8.3,5.6-10.4,10.4c-1.7,3.7-1.7,9.1-1.6,13.1c0,0.8,0.3,1.1,1.1,1.1c1.4,0,2.9,0,4.4,0   c1.3,0,2.6,0,3.9,0c1.1,0.1,1.5-0.3,1.5-1.4c0-2.1,0.1-4.1,0.2-6.2c0.2-2.8,2.3-4.4,4.2-6.1c4.6-4.1,10.7-8.8,10.7-15.5   C88.4,44.9,86.2,40.7,83,37.9z"/><path d="M112.8,27.8C94.2,4.6,60.3-0.4,35.7,16.5c-22.3,15.2-30.3,43-21.7,67L2.5,110.9c-0.5,1.1,0.6,2.3,1.7,1.9   c9.5-3.1,19.4-4.2,29.8-2.5c19.8,14.6,47.7,15.3,68.5-0.2C128.5,90.6,133.5,53.3,112.8,27.8z M97.3,103.1c-8.7,6.5-19,9.8-29.2,9.8   c-10.1,0-20.3-3.2-28.9-9.6l-1.7-1.2l-2-0.3c-3.7-0.6-7.5-0.9-11.2-0.9c-2.8,0-5.6,0.2-8.4,0.5l7.4-17.7l-1.1-3.2   c-7.5-20.9,0.1-44.3,18.5-56.9c20.9-14.3,49.6-10,65.5,9.6v0c8.4,10.5,12.2,23.5,10.5,36.8C114.9,83.4,108.1,95.1,97.3,103.1z"/></g><text x="0" y="143" fill="#000000" font-size="5px" font-weight="bold" font-family="'Helvetica Neue', Helvetica, Arial-Unicode, Arial, Sans-serif">Created by Delwar Hossain</text><text x="0" y="148" fill="#000000" font-size="5px" font-weight="bold" font-family="'Helvetica Neue', Helvetica, Arial-Unicode, Arial, Sans-serif">from the Noun Project</text></svg>