<svg xmlns="http://www.w3.org/2000/svg" version="1.1" viewBox="-5.0 -10.0 110.0 135.0">
 <g>
  <path d="m45.066 18.254c-0.0625 0.16016-0.13281 0.31641-0.20312 0.47266-0.03125 0.066407-0.0625 0.13281-0.09375 0.20313-1.2305 2.5508-3.2891 4.6094-5.8398 5.8398-0.070313 0.03125-0.13672 0.0625-0.20313 0.09375-0.15625 0.070313-0.3125 0.14062-0.47266 0.20312-0.26172 0.10938-0.52734 0.20703-0.79688 0.29688l-1.9922 0.66406c-0.94922 0.31641-0.94922 1.6602 0 1.9766l1.9922 0.66406c0.26953 0.089843 0.53516 0.19141 0.79688 0.29688 0.16016 0.066406 0.31641 0.13281 0.47266 0.20703 0.066407 0.03125 0.13281 0.0625 0.20313 0.09375 2.5508 1.2266 4.6094 3.2891 5.8398 5.8398 0.03125 0.066406 0.0625 0.13281 0.09375 0.19922 0.070313 0.15625 0.14062 0.3125 0.20312 0.47266 0.10938 0.26172 0.20703 0.52734 0.29688 0.79688l0.66406 1.9961c0.31641 0.94922 1.6602 0.94922 1.9766 0l0.66406-1.9961c0.089843-0.26953 0.19141-0.53516 0.29688-0.79688 0.066406-0.16016 0.13281-0.31641 0.20703-0.47266 0.03125-0.066407 0.0625-0.13281 0.09375-0.19922 1.2266-2.5508 3.2891-4.6133 5.8398-5.8398 0.066406-0.03125 0.13281-0.0625 0.19922-0.09375 0.15625-0.074219 0.3125-0.14062 0.47266-0.20703 0.26172-0.10547 0.52734-0.20703 0.79688-0.29688l1.9922-0.66406c0.95312-0.31641 0.95312-1.6602 0-1.9766l-1.9922-0.66406c-0.26953-0.089843-0.53516-0.1875-0.79688-0.29688-0.16016-0.0625-0.31641-0.13281-0.47266-0.20312-0.066407-0.03125-0.13281-0.0625-0.19922-0.09375-2.5508-1.2305-4.6133-3.2891-5.8398-5.8398-0.03125-0.070313-0.0625-0.13672-0.09375-0.20313-0.074219-0.15625-0.14062-0.3125-0.20703-0.47266-0.10547-0.26172-0.20703-0.52734-0.29688-0.79688l-0.66406-1.9922c-0.31641-0.94922-1.6602-0.94922-1.9766 0l-0.66406 1.9922c-0.089843 0.26953-0.1875 0.53516-0.29688 0.79688zm1.9492 5.0117c-1.043 1.4414-2.3086 2.707-3.75 3.75 1.4414 1.043 2.707 2.3125 3.75 3.7539 1.043-1.4414 2.3125-2.7109 3.7539-3.7539-1.4414-1.043-2.7109-2.3086-3.7539-3.75z" fill-rule="evenodd"/>
  <path d="m77.297 25.941c-0.31641-0.94922-1.6602-0.94922-1.9766 0l-0.26562 0.79688c-0.41406 1.2461-1.3906 2.2227-2.6367 2.6367l-0.79688 0.26562c-0.94922 0.31641-0.94922 1.6602 0 1.9766l0.79688 0.26562c1.2461 0.41406 2.2227 1.3906 2.6367 2.6367l0.26562 0.79688c0.31641 0.94922 1.6602 0.94922 1.9766 0l0.26562-0.79688c0.41406-1.2461 1.3906-2.2227 2.6367-2.6367l0.79688-0.26562c0.94922-0.31641 0.94922-1.6602 0-1.9766l-0.79688-0.26562c-1.2461-0.41406-2.2227-1.3906-2.6367-2.6367z"/>
  <path d="m60.891 38.312c0.10156-0.22656 0.19531-0.46094 0.28125-0.69531 0.078125-0.20313 0.15234-0.40625 0.21875-0.61328l0.73047-2.1875c0.31641-0.94922 1.6602-0.94922 1.9766 0l0.72656 2.1875c0.070312 0.20703 0.14062 0.41016 0.21875 0.61328 0.089843 0.23437 0.18359 0.46875 0.28125 0.69531l0.011719 0.03125c1.6836 3.8945 4.793 7.0039 8.6875 8.6875l0.03125 0.011719c0.23047 0.10156 0.46094 0.19141 0.69531 0.28125 0.20312 0.078125 0.40625 0.14844 0.61719 0.21875l2.1836 0.73047c0.94922 0.31641 0.94922 1.6602 0 1.9766l-2.1836 0.72656c-0.21094 0.070313-0.41406 0.14063-0.61719 0.21875-0.23438 0.089844-0.46484 0.18359-0.69531 0.28125l-0.03125 0.011719c-3.8945 1.6836-7.0039 4.793-8.6875 8.6875l-0.011719 0.03125c-0.097657 0.22656-0.19141 0.46094-0.28125 0.69531-0.078125 0.20312-0.14844 0.40625-0.21875 0.61328l-0.72656 2.1875c-0.31641 0.94922-1.6602 0.94922-1.9766 0l-0.73047-2.1875c-0.066406-0.20703-0.14062-0.41016-0.21875-0.61328-0.085937-0.23438-0.17969-0.46875-0.28125-0.69531l-0.011719-0.03125c-1.6836-3.8945-4.793-7.0039-8.6875-8.6875l-0.03125-0.011719c-0.22656-0.097656-0.46094-0.19141-0.69531-0.28125-0.20312-0.078124-0.40625-0.14844-0.61328-0.21875l-2.1875-0.72656c-0.94922-0.31641-0.94922-1.6602 0-1.9766l2.1875-0.73047c0.20703-0.070313 0.41016-0.14062 0.61328-0.21875 0.23438-0.089844 0.46875-0.17969 0.69531-0.28125l0.03125-0.011719c3.8945-1.6836 7.0039-4.793 8.6875-8.6875zm-4.0508 10.949c2.5156-1.6172 4.6523-3.7539 6.2695-6.2695 1.6133 2.5156 3.75 4.6523 6.2656 6.2695-2.5156 1.6133-4.6523 3.75-6.2656 6.2656-1.6172-2.5156-3.7539-4.6523-6.2695-6.2656z" fill-rule="evenodd"/>
  <path d="m17.918 37.5c0-1.1523 0.92969-2.082 2.082-2.082h6.25c1.1523 0 2.082-0.93359 2.082-2.0859 0-1.1484-0.92969-2.082-2.082-2.082h-6.25c-3.4531 0-6.25 2.7969-6.25 6.25v33.332c0 3.4531 2.7969 6.25 6.25 6.25h6.25v6.25c0 3.4336 3.918 5.3945 6.668 3.3359l12.223-9.168c0.35938-0.26953 0.79688-0.41797 1.25-0.41797h27.777c3.4492 0 6.25-2.7969 6.25-6.25v-8.332c0-1.1523-0.93359-2.082-2.0859-2.082-1.1484 0-2.082 0.92969-2.082 2.082v8.332c0 1.1523-0.93359 2.0859-2.082 2.0859h-27.777c-1.3555 0-2.668 0.4375-3.75 1.25l-12.223 9.1641v-7.2891c0-1.7266-1.4023-3.125-3.125-3.125h-7.293c-1.1523 0-2.082-0.93359-2.082-2.0859z"/>
 </g>
<text x="0.0" y="117.5" font-size="5.0" font-weight="bold" font-family="Arbeit Regular, Helvetica, Arial-Unicode, Arial, Sans-serif" fill="#000000">Created by Josh Sorosky</text><text x="0.0" y="122.5" font-size="5.0" font-weight="bold" font-family="Arbeit Regular, Helvetica, Arial-Unicode, Arial, Sans-serif" fill="#000000">from Noun Project</text></svg>