<svg xmlns="http://www.w3.org/2000/svg" xmlns:xlink="http://www.w3.org/1999/xlink" version="1.1" x="0px" y="0px" viewBox="0 0 100 125" enable-background="new 0 0 100 100" xml:space="preserve"><g><rect x="-192" width="185" height="99"/><rect y="-36" width="100" height="30"/><text transform="matrix(1 0 0 1 66 -19.5)" fill="#000000" font-family="'Helvetica'" font-size="2.4">http://thenounproject.com</text><text transform="matrix(1 0 0 1 7.166 -24.5)" fill="#000000" font-family="'Helvetica-Bold'" font-size="6.1578">The Noun Project</text><text transform="matrix(1 0 0 1 8.2861 -19.7002)" fill="#000000" font-family="'Helvetica-Bold'" font-size="4">Icon Template</text><text transform="matrix(1 0 0 1 -178.5 10.5)" fill="#000000" font-family="'Helvetica-Bold'" font-size="6.1578">Reminders</text><line fill="#000000" stroke="#FFFFFF" stroke-miterlimit="10" x1="8" y1="-14.5" x2="18" y2="-14.5"/><line fill="#000000" stroke="#FFFFFF" stroke-miterlimit="10" x1="-179" y1="16.5" x2="-162" y2="16.5"/><g><g><g><rect x="-170.802" y="31.318" fill="#000000" width="8.721" height="8.642"/><path fill="#000000" d="M-164.455,42.312h4.747v-4.703h-4.747V42.312z M-159.266,42.749h-5.63V37.17h5.63V42.749      L-159.266,42.749z M-166.221,44.062h8.279v-8.203h-8.279V44.062L-166.221,44.062z M-157.5,44.5h-9.163v-9.079h9.163V44.5      L-157.5,44.5z"/><polygon fill="#000000" points="-166.149,44.133 -166.292,43.991 -158.013,35.787 -157.871,35.929     "/></g></g></g><rect x="-179" y="58" fill="none" width="35" height="32.5"/><text transform="matrix(1 0 0 1 -179 60.1572)" fill="#000000" font-family="'Helvetica-Bold'" font-size="3">Strokes</text><text transform="matrix(1 0 0 1 -179 65.1572)" fill="#000000" font-family="'Helvetica'" font-size="2.4">Try to keep strokes at 4px</text><text transform="matrix(1 0 0 1 -179 70.1572)" fill="#000000" font-family="'Helvetica'" font-size="2.4">Minimum stroke weight is 2px</text><text transform="matrix(1 0 0 1 -179 74.6572)" fill="#000000" font-family="'Helvetica'" font-size="2.4">For thicker strokes use even </text><text transform="matrix(1 0 0 1 -179 77.6572)" fill="#000000" font-family="'Helvetica'" font-size="2.4">numbers: 6px, 8px etc.</text><text transform="matrix(1 0 0 1 -179 82.1572)" fill="#000000" font-family="'Helvetica-Bold'" font-size="2.4">Remember to expand strokes </text><text transform="matrix(1 0 0 1 -179 85.1572)" fill="#000000" font-family="'Helvetica-Bold'" font-size="2.4">before saving as an SVG </text><rect x="-136.5" y="58" fill="none" width="35" height="32.5"/><text transform="matrix(1 0 0 1 -136.5 60.1572)" fill="#000000" font-family="'Helvetica-Bold'" font-size="3">Size</text><text transform="matrix(1 0 0 1 -136.5 65.1572)" fill="#000000" font-family="'Helvetica'" font-size="2.4">Cannot be wider or taller than </text><text transform="matrix(1 0 0 1 -136.5 68.6572)" fill="#000000" font-family="'Helvetica'" font-size="2.4">100px (artboard size)</text><text transform="matrix(1 0 0 1 -136.5 73.6572)" fill="#000000" font-family="'Helvetica'" font-size="2.4">Scale your icon to fill as much of </text><text transform="matrix(1 0 0 1 -136.5 76.6572)" fill="#000000" font-family="'Helvetica'" font-size="2.4">the artboard as possible</text><rect x="-94" y="58" fill="none" width="35" height="32.5"/><text transform="matrix(1 0 0 1 -94 60.1572)" fill="#000000" font-family="'Helvetica-Bold'" font-size="3">Ungroup</text><text transform="matrix(1 0 0 1 -94 65.1572)" fill="#000000" font-family="'Helvetica'" font-size="2.4">If your design has more than one </text><text transform="matrix(1 0 0 1 -94 68.1572)" fill="#000000" font-family="'Helvetica'" font-size="2.4">shape, make sure to ungroup</text><rect x="-50" y="58" fill="none" width="35" height="32.5"/><text transform="matrix(1 0 0 1 -50 60.1572)" fill="#000000" font-family="'Helvetica-Bold'" font-size="3">Save as</text><text transform="matrix(1 0 0 1 -50 65.1572)" fill="#000000" font-family="'Helvetica'" font-size="2.4">Save as .SVG and make sure </text><text transform="matrix(1 0 0 1 -50 68.1572)" fill="#000000" font-family="'Helvetica'" font-size="2.4">“Use Artboards” is checked</text><text transform="matrix(1.0074 0 0 1 -125.542 30.5938)" fill="#000000" font-family="'Helvetica'" font-size="2.5731">100px</text><text transform="matrix(1.0074 0 0 1 -41 39)" fill="#000000" font-family="'Helvetica-Bold'" font-size="5.1462">.SVG</text><rect x="-126.514" y="34.815" fill="#000000" width="10.261" height="10.185"/><rect x="-126.477" y="31.766" fill="#000000" width="0.522" height="2.337"/><rect x="-116.812" y="31.766" fill="#000000" width="0.523" height="2.337"/><rect x="-127" y="32.337" fill="#000000" width="11.233" height="0.572"/><g><rect x="-83.805" y="33.844" fill="#000000" width="10.305" height="10.156"/><rect x="-76.809" y="28.707" fill="#000000" width="3.308" height="3.261"/></g><rect x="-178.5" y="22.5" fill="#000000" stroke="#FFFFFF" stroke-miterlimit="10" width="30" height="30"/><rect x="-136.5" y="22.5" fill="#000000" stroke="#FFFFFF" stroke-miterlimit="10" width="30" height="30"/><rect x="-93.5" y="22.5" fill="#000000" stroke="#FFFFFF" stroke-miterlimit="10" width="30" height="30"/><rect x="-49.5" y="22.5" fill="#000000" stroke="#FFFFFF" stroke-miterlimit="10" width="30" height="30"/></g><path d="M47.146,71.588c-0.627,0-1.254-0.264-1.699-0.773L16.429,37.407c-2.78-2.777-2.78-7.485,0.105-10.38l8.235-8.227  c2.801-2.807,7.688-2.807,10.5,0l33.29,28.901c0.938,0.814,1.037,2.235,0.223,3.176c-0.817,0.938-2.235,1.034-3.176,0.223  l-33.404-29.01c-1.333-1.318-3.141-1.216-4.251-0.108l-8.232,8.224c-1.137,1.14-1.137,2.994,0,4.134l29.127,33.521  c0.814,0.94,0.715,2.361-0.223,3.176C48.195,71.406,47.671,71.588,47.146,71.588z"/><path d="M72.79,83.327c-0.592,0-1.166-0.234-1.591-0.659l-4.793-4.787c-0.422-0.422-0.659-0.993-0.659-1.591  c0-0.595,0.237-1.169,0.659-1.591l6.217-6.22c0.844-0.844,2.338-0.844,3.182,0l9.179,9.182c0.595,0.595,0.809,1.471,0.554,2.271  c-0.255,0.803-0.935,1.395-1.764,1.538l-10.603,1.825C73.045,83.315,72.916,83.327,72.79,83.327z M71.179,76.29l2.376,2.373  l5.177-0.891l-4.518-4.521L71.179,76.29z"/><path d="M67.997,78.54c-0.577,0-1.151-0.22-1.591-0.659c-3.366-3.369-9.718-1.4-11.2-0.876c-1.6,1.222-4.052,1.075-5.499-0.384  l-3.732-3.732c-0.788-0.782-1.228-1.831-1.23-2.947c-0.003-1.119,0.434-2.177,1.228-2.974l18.7-18.694  c1.57-1.579,4.33-1.579,5.915-0.003l3.738,3.741c0.791,0.785,1.228,1.837,1.228,2.956c0.003,0.981-0.334,1.913-0.949,2.663  c-0.554,1.125-2.959,6.694,1.201,10.854c0.879,0.879,0.879,2.303,0,3.182s-2.303,0.879-3.182,0  c-5.575-5.575-3.653-13.175-1.857-16.415c0.053-0.091,0.108-0.179,0.173-0.264l-3.308-3.311L49.376,69.927l3.519,3.519  c0.214-0.214,0.021-0.378,0.299-0.492c0.425-0.173,10.459-4.189,16.395,1.746c0.879,0.879,0.879,2.303,0,3.182  C69.148,78.32,68.574,78.54,67.997,78.54z"/><path d="M45.655,54.399c-0.568,0-1.134-0.214-1.573-0.642L24.928,35.049c-0.888-0.867-0.905-2.291-0.035-3.182  c0.867-0.888,2.291-0.902,3.182-0.035l19.154,18.709c0.888,0.867,0.905,2.291,0.035,3.182  C46.824,54.174,46.241,54.399,45.655,54.399z"/><path d="M51.304,77.286c-0.574,0-1.148-0.217-1.585-0.653c-0.882-0.876-0.888-2.303-0.012-3.182l12.176-12.246  c0.876-0.885,2.306-0.885,3.182-0.012c0.882,0.876,0.888,2.303,0.012,3.182L52.9,76.621C52.461,77.063,51.881,77.286,51.304,77.286z  "/><text x="0" y="115" fill="#000000" font-size="5px" font-weight="bold" font-family="'Helvetica Neue', Helvetica, Arial-Unicode, Arial, Sans-serif">Created by Joe Harrison</text><text x="0" y="120" fill="#000000" font-size="5px" font-weight="bold" font-family="'Helvetica Neue', Helvetica, Arial-Unicode, Arial, Sans-serif">from the Noun Project</text></svg>